<svg width="374" height="41" viewBox="0 0 374 41" fill="none" xmlns="http://www.w3.org/2000/svg">
<circle cx="114.483" cy="20.1619" r="19.1605" fill="white"/>
<circle cx="66.8216" cy="20.1619" r="19.1605" fill="#A8E052"/>
<circle cx="19.1615" cy="20.1619" r="19.1605" fill="white"/>
<circle cx="162.144" cy="20.1619" r="19.1605" fill="white"/>
<path fill-rule="evenodd" clip-rule="evenodd" d="M116.699 14.402C117.445 14.561 118.017 14.8446 118.505 15.302C119.134 15.8957 119.479 16.6143 119.63 17.6466C119.733 18.3196 119.691 18.5843 119.452 18.8037C119.229 19.0079 118.816 19.0154 118.566 18.8226C118.384 18.6864 118.327 18.5427 118.286 18.1531C118.237 17.6349 118.146 17.272 117.99 16.9355C117.657 16.2209 117.07 15.8502 116.078 15.7293C115.612 15.6724 115.472 15.6197 115.32 15.4418C115.044 15.1128 115.15 14.5796 115.532 14.3829C115.676 14.311 115.737 14.3035 116.055 14.3224C116.252 14.3338 116.544 14.3679 116.699 14.402ZM115.892 11.5467C118.191 11.8833 119.971 12.9497 121.138 14.6817C121.793 15.6574 122.202 16.8032 122.343 18.0322C122.392 18.4822 122.392 19.3028 122.339 19.439C122.289 19.5675 122.13 19.7414 121.994 19.8133C121.846 19.889 121.532 19.8812 121.358 19.7905C121.066 19.6429 120.979 19.4085 120.979 18.7732C120.979 17.7939 120.725 16.7613 120.286 15.9595C119.786 15.0442 119.059 14.288 118.173 13.7622C117.411 13.3084 116.286 12.9718 115.26 12.8886C114.889 12.8584 114.684 12.7826 114.544 12.6201C114.328 12.3743 114.306 12.0413 114.487 11.7653C114.684 11.4599 114.987 11.4105 115.892 11.5467ZM106.973 9.21356C107.105 9.25907 107.31 9.36475 107.427 9.4405C108.147 9.91713 110.15 12.4772 110.806 13.7554C111.181 14.4853 111.306 15.026 111.188 15.4269C111.067 15.858 110.866 16.0849 109.969 16.8071C109.609 17.0981 109.272 17.3969 109.219 17.4765C109.082 17.6732 108.973 18.0588 108.973 18.3313C108.976 18.9627 109.385 20.1088 109.923 20.9899C110.34 21.6743 111.086 22.5515 111.824 23.2249C112.692 24.0192 113.457 24.5599 114.32 24.9871C115.43 25.5392 116.108 25.679 116.604 25.4485C116.729 25.3916 116.862 25.3161 116.903 25.282C116.941 25.2479 117.233 24.8925 117.551 24.4991C118.164 23.7276 118.304 23.6027 118.725 23.459C119.259 23.2776 119.804 23.3267 120.354 23.6066C120.77 23.8222 121.679 24.3856 122.266 24.794C123.039 25.3347 124.69 26.6811 124.914 26.9496C125.307 27.4337 125.376 28.0538 125.111 28.7385C124.83 29.4606 123.74 30.8145 122.978 31.3932C122.289 31.9151 121.801 32.1154 121.157 32.1456C120.626 32.1719 120.407 32.1267 119.729 31.8468C114.412 29.6573 110.166 26.3901 106.795 21.901C105.034 19.5564 103.693 17.1247 102.777 14.6023C102.242 13.1314 102.216 12.4922 102.655 11.7395C102.845 11.4219 103.651 10.6354 104.239 10.1968C105.216 9.47074 105.666 9.20218 106.026 9.12644C106.272 9.07344 106.7 9.11506 106.973 9.21356ZM115.631 8.80519C116.934 8.96776 117.987 9.28152 119.142 9.84528C120.278 10.4013 121.005 10.927 121.967 11.8836C122.869 12.7874 123.369 13.4718 123.899 14.5344C124.638 16.0167 125.058 17.7792 125.13 19.719C125.157 20.3806 125.137 20.5282 124.986 20.7175C124.698 21.0842 124.066 21.0237 123.85 20.6115C123.781 20.4752 123.763 20.3582 123.74 19.8286C123.702 19.0154 123.645 18.49 123.531 17.8621C123.084 15.4002 121.903 13.4338 120.017 12.0231C118.445 10.8432 116.82 10.2683 114.692 10.1435C113.972 10.1019 113.847 10.0755 113.684 9.95067C113.381 9.71235 113.366 9.15278 113.657 8.89171C113.836 8.72914 113.96 8.70639 114.578 8.72525C114.9 8.73693 115.374 8.77495 115.631 8.80519ZM114.483 1C125.066 1 133.645 9.57882 133.645 20.1612C133.645 30.7435 125.066 39.3224 114.483 39.3224C103.901 39.3224 95.3223 30.7435 95.3223 20.1612C95.3223 9.57882 103.901 1 114.483 1Z" fill="#A8E052"/>
<path d="M68.5713 31.9717V21.473H72.0709L72.9458 17.0985H68.5713V15.3488C68.5713 13.599 69.448 12.7241 71.196 12.7241H72.9458V8.34961C72.0709 8.34961 70.986 8.34961 69.4462 8.34961C66.231 8.34961 64.1968 10.8702 64.1968 14.4739V17.0985H60.6973V21.473H64.1968V31.9717H68.5713Z" fill="white"/>
<path fill-rule="evenodd" clip-rule="evenodd" d="M162.145 39.3212C172.727 39.3212 181.306 30.743 181.306 20.1611C181.306 9.57926 172.727 1.00098 162.145 1.00098C151.564 1.00098 142.985 9.57926 142.985 20.1611C142.985 30.743 151.564 39.3212 162.145 39.3212ZM168.362 28.8318L171.91 12.0957C172.225 10.6205 171.38 10.0431 170.414 10.4053L149.552 18.4426C148.129 18.999 148.15 19.797 149.311 20.1592L154.644 21.8286L167.033 14.0276C167.616 13.6391 168.146 13.8544 167.711 14.2428L157.689 23.2985L157.301 28.8056C157.857 28.8056 158.099 28.564 158.387 28.2753L160.996 25.7659L166.403 29.7505C167.396 30.3069 168.094 30.013 168.362 28.8318Z" fill="#A8E052"/>
<path fill-rule="evenodd" clip-rule="evenodd" d="M38.3203 20.1601C38.3203 30.742 29.742 39.3203 19.1601 39.3203C8.57828 39.3203 0 30.742 0 20.1601C0 9.57828 8.57828 1 19.1601 1C29.742 1 38.3203 9.57828 38.3203 20.1601ZM21.1091 16.2607H11.3608C10.2856 16.2607 9.41113 17.1352 9.41113 18.2104V27.9587C9.41113 29.034 10.2856 29.9084 11.3608 29.9084H21.1091C22.1844 29.9084 23.0588 29.034 23.0588 27.9587V18.2104C23.0588 17.1352 22.1844 16.2607 21.1091 16.2607ZM17.2094 10.4116H26.9578C27.4748 10.4116 27.9707 10.617 28.3364 10.9827C28.702 11.3483 28.9074 11.8442 28.9074 12.3613V22.1096C28.9074 22.6267 28.702 23.1226 28.3364 23.4882C27.9707 23.8539 27.4748 24.0593 26.9578 24.0593H25.0081V16.2606C25.0081 15.7435 24.8027 15.2476 24.437 14.882C24.0714 14.5164 23.5755 14.311 23.0584 14.311H15.2598V12.3613C15.2598 11.8442 15.4652 11.3483 15.8308 10.9827C16.1964 10.617 16.6923 10.4116 17.2094 10.4116Z" fill="#A8E052"/>
<circle cx="305.788" cy="20.1619" r="19.6605" fill="#66CCFE" stroke="#66CCFE"/>
<circle cx="258.127" cy="20.1619" r="19.6605" fill="white" stroke="#66CCFE"/>
<circle cx="210.467" cy="20.1619" r="19.1605" fill="#66CCFE"/>
<circle cx="353.449" cy="20.1619" r="19.6605" fill="#66CCFE" stroke="#66CCFE"/>
<path d="M259.877 31.9717V21.473H263.376L264.251 17.0985H259.877V15.3488C259.877 13.599 260.754 12.7241 262.502 12.7241H264.251V8.34961C263.376 8.34961 262.292 8.34961 260.752 8.34961C257.537 8.34961 255.502 10.8702 255.502 14.4739V17.0985H252.003V21.473H255.502V31.9717H259.877Z" fill="#66CCFE"/>
<path fill-rule="evenodd" clip-rule="evenodd" d="M308.005 14.402C308.751 14.561 309.322 14.8446 309.811 15.302C310.44 15.8957 310.784 16.6143 310.936 17.6466C311.038 18.3196 310.996 18.5843 310.758 18.8037C310.534 19.0079 310.122 19.0154 309.872 18.8226C309.69 18.6864 309.633 18.5427 309.591 18.1531C309.542 17.6349 309.451 17.272 309.296 16.9355C308.963 16.2209 308.376 15.8502 307.383 15.7293C306.917 15.6724 306.777 15.6197 306.626 15.4418C306.349 15.1128 306.455 14.5796 306.838 14.3829C306.982 14.311 307.042 14.3035 307.361 14.3224C307.558 14.3338 307.849 14.3679 308.005 14.402ZM307.198 11.5467C309.497 11.8833 311.277 12.9497 312.444 14.6817C313.099 15.6574 313.508 16.8032 313.648 18.0322C313.697 18.4822 313.697 19.3028 313.644 19.439C313.595 19.5675 313.436 19.7414 313.3 19.8133C313.152 19.889 312.838 19.8812 312.663 19.7905C312.372 19.6429 312.285 19.4085 312.285 18.7732C312.285 17.7939 312.031 16.7613 311.592 15.9595C311.092 15.0442 310.364 14.288 309.478 13.7622C308.717 13.3084 307.592 12.9718 306.566 12.8886C306.194 12.8584 305.99 12.7826 305.85 12.6201C305.634 12.3743 305.611 12.0413 305.793 11.7653C305.99 11.4599 306.293 11.4105 307.198 11.5467ZM298.278 9.21356C298.411 9.25907 298.616 9.36475 298.733 9.4405C299.452 9.91713 301.456 12.4772 302.111 13.7554C302.486 14.4853 302.611 15.026 302.494 15.4269C302.373 15.858 302.172 16.0849 301.274 16.8071C300.914 17.0981 300.577 17.3969 300.524 17.4765C300.388 17.6732 300.278 18.0588 300.278 18.3313C300.282 18.9627 300.691 20.1088 301.229 20.9899C301.645 21.6743 302.391 22.5515 303.13 23.2249C303.997 24.0192 304.762 24.5599 305.626 24.9871C306.736 25.5392 307.414 25.679 307.91 25.4485C308.035 25.3916 308.167 25.3161 308.209 25.282C308.246 25.2479 308.538 24.8925 308.856 24.4991C309.47 23.7276 309.61 23.6027 310.031 23.459C310.565 23.2776 311.11 23.3267 311.659 23.6066C312.076 23.8222 312.985 24.3856 313.572 24.794C314.345 25.3347 315.996 26.6811 316.219 26.9496C316.613 27.4337 316.681 28.0538 316.416 28.7385C316.136 29.4606 315.045 30.8145 314.284 31.3932C313.595 31.9151 313.106 32.1154 312.462 32.1456C311.932 32.1719 311.712 32.1267 311.034 31.8468C305.717 29.6573 301.471 26.3901 298.101 21.901C296.34 19.5564 294.999 17.1247 294.082 14.6023C293.548 13.1314 293.522 12.4922 293.961 11.7395C294.15 11.4219 294.957 10.6354 295.544 10.1968C296.521 9.47074 296.972 9.20218 297.332 9.12644C297.578 9.07344 298.006 9.11506 298.278 9.21356ZM306.937 8.80519C308.24 8.96776 309.292 9.28152 310.448 9.84528C311.584 10.4013 312.311 10.927 313.273 11.8836C314.174 12.7874 314.674 13.4718 315.205 14.5344C315.943 16.0167 316.364 17.7792 316.435 19.719C316.462 20.3806 316.443 20.5282 316.291 20.7175C316.004 21.0842 315.371 21.0237 315.155 20.6115C315.087 20.4752 315.068 20.3582 315.045 19.8286C315.007 19.0154 314.951 18.49 314.837 17.8621C314.39 15.4002 313.208 13.4338 311.322 12.0231C309.75 10.8432 308.126 10.2683 305.997 10.1435C305.277 10.1019 305.153 10.0755 304.99 9.95067C304.687 9.71235 304.671 9.15278 304.963 8.89171C305.141 8.72914 305.266 8.70639 305.883 8.72525C306.206 8.73693 306.679 8.77495 306.937 8.80519ZM305.789 1C316.371 1 324.95 9.57882 324.95 20.1612C324.95 30.7435 316.371 39.3224 305.789 39.3224C295.207 39.3224 286.628 30.7435 286.628 20.1612C286.628 9.57882 295.207 1 305.789 1Z" fill="white"/>
<path fill-rule="evenodd" clip-rule="evenodd" d="M353.451 39.3212C364.033 39.3212 372.611 30.743 372.611 20.1611C372.611 9.57926 364.033 1.00098 353.451 1.00098C342.869 1.00098 334.291 9.57926 334.291 20.1611C334.291 30.743 342.869 39.3212 353.451 39.3212ZM359.667 28.8318L363.216 12.0957C363.531 10.6205 362.686 10.0431 361.72 10.4053L340.858 18.4426C339.435 18.999 339.456 19.797 340.616 20.1592L345.95 21.8286L358.339 14.0276C358.922 13.6391 359.452 13.8544 359.016 14.2428L348.995 23.2985L348.606 28.8056C349.163 28.8056 349.404 28.564 349.693 28.2753L352.302 25.7659L357.709 29.7505C358.701 30.3069 359.399 30.013 359.667 28.8318Z" fill="white"/>
<mask id="path-16-outside-1_121_81" maskUnits="userSpaceOnUse" x="190.306" y="0" width="41" height="41" fill="black">
<rect fill="white" x="190.306" width="41" height="41"/>
<path fill-rule="evenodd" clip-rule="evenodd" d="M229.626 20.1601C229.626 30.742 221.048 39.3203 210.466 39.3203C199.884 39.3203 191.306 30.742 191.306 20.1601C191.306 9.57828 199.884 1 210.466 1C221.048 1 229.626 9.57828 229.626 20.1601ZM212.415 16.2607H202.666C201.591 16.2607 200.717 17.1352 200.717 18.2104V27.9587C200.717 29.034 201.591 29.9084 202.666 29.9084H212.415C213.49 29.9084 214.364 29.034 214.364 27.9587V18.2104C214.364 17.1352 213.49 16.2607 212.415 16.2607ZM208.515 10.4116H218.263C218.78 10.4116 219.276 10.617 219.642 10.9827C220.008 11.3483 220.213 11.8442 220.213 12.3613V22.1096C220.213 22.6267 220.008 23.1226 219.642 23.4882C219.276 23.8539 218.78 24.0593 218.263 24.0593H216.314V16.2606C216.314 15.7435 216.108 15.2476 215.743 14.882C215.377 14.5164 214.881 14.311 214.364 14.311H206.565V12.3613C206.565 11.8442 206.771 11.3483 207.136 10.9827C207.502 10.617 207.998 10.4116 208.515 10.4116Z"/>
</mask>
<path fill-rule="evenodd" clip-rule="evenodd" d="M229.626 20.1601C229.626 30.742 221.048 39.3203 210.466 39.3203C199.884 39.3203 191.306 30.742 191.306 20.1601C191.306 9.57828 199.884 1 210.466 1C221.048 1 229.626 9.57828 229.626 20.1601ZM212.415 16.2607H202.666C201.591 16.2607 200.717 17.1352 200.717 18.2104V27.9587C200.717 29.034 201.591 29.9084 202.666 29.9084H212.415C213.49 29.9084 214.364 29.034 214.364 27.9587V18.2104C214.364 17.1352 213.49 16.2607 212.415 16.2607ZM208.515 10.4116H218.263C218.78 10.4116 219.276 10.617 219.642 10.9827C220.008 11.3483 220.213 11.8442 220.213 12.3613V22.1096C220.213 22.6267 220.008 23.1226 219.642 23.4882C219.276 23.8539 218.78 24.0593 218.263 24.0593H216.314V16.2606C216.314 15.7435 216.108 15.2476 215.743 14.882C215.377 14.5164 214.881 14.311 214.364 14.311H206.565V12.3613C206.565 11.8442 206.771 11.3483 207.136 10.9827C207.502 10.617 207.998 10.4116 208.515 10.4116Z" fill="white"/>
<path d="M219.642 10.9827L218.935 11.6898L218.935 11.6898L219.642 10.9827ZM219.642 23.4882L218.935 22.7811L218.935 22.7811L219.642 23.4882ZM216.314 24.0593H215.314V25.0593H216.314V24.0593ZM215.743 14.882L215.036 15.5891L215.036 15.5891L215.743 14.882ZM206.565 14.311H205.565V15.311H206.565V14.311ZM210.466 40.3203C221.6 40.3203 230.626 31.2943 230.626 20.1601H228.626C228.626 30.1897 220.495 38.3203 210.466 38.3203V40.3203ZM190.306 20.1601C190.306 31.2943 199.332 40.3203 210.466 40.3203V38.3203C200.436 38.3203 192.306 30.1897 192.306 20.1601H190.306ZM210.466 0C199.332 0 190.306 9.026 190.306 20.1601H192.306C192.306 10.1306 200.436 2 210.466 2V0ZM230.626 20.1601C230.626 9.026 221.6 0 210.466 0V2C220.495 2 228.626 10.1306 228.626 20.1601H230.626ZM202.666 17.2607H212.415V15.2607H202.666V17.2607ZM201.717 18.2104C201.717 17.6875 202.143 17.2607 202.666 17.2607V15.2607C201.039 15.2607 199.717 16.5829 199.717 18.2104H201.717ZM201.717 27.9587V18.2104H199.717V27.9587H201.717ZM202.666 28.9084C202.143 28.9084 201.717 28.4817 201.717 27.9587H199.717C199.717 29.5863 201.039 30.9084 202.666 30.9084V28.9084ZM212.415 28.9084H202.666V30.9084H212.415V28.9084ZM213.364 27.9587C213.364 28.4817 212.938 28.9084 212.415 28.9084V30.9084C214.042 30.9084 215.364 29.5863 215.364 27.9587H213.364ZM213.364 18.2104V27.9587H215.364V18.2104H213.364ZM212.415 17.2607C212.938 17.2607 213.364 17.6875 213.364 18.2104H215.364C215.364 16.5829 214.042 15.2607 212.415 15.2607V17.2607ZM218.263 9.41162H208.515V11.4116H218.263V9.41162ZM220.349 10.2756C219.796 9.72239 219.046 9.41162 218.263 9.41162V11.4116C218.515 11.4116 218.757 11.5117 218.935 11.6898L220.349 10.2756ZM221.213 12.3613C221.213 11.579 220.902 10.8287 220.349 10.2756L218.935 11.6898C219.113 11.8679 219.213 12.1094 219.213 12.3613H221.213ZM221.213 22.1096V12.3613H219.213V22.1096H221.213ZM220.349 24.1953C220.902 23.6422 221.213 22.8919 221.213 22.1096H219.213C219.213 22.3615 219.113 22.603 218.935 22.7811L220.349 24.1953ZM218.263 25.0593C219.046 25.0593 219.796 24.7485 220.349 24.1953L218.935 22.7811C218.757 22.9592 218.515 23.0593 218.263 23.0593V25.0593ZM216.314 25.0593H218.263V23.0593H216.314V25.0593ZM215.314 16.2606V24.0593H217.314V16.2606H215.314ZM215.036 15.5891C215.214 15.7672 215.314 16.0087 215.314 16.2606H217.314C217.314 15.4783 217.003 14.7281 216.45 14.1749L215.036 15.5891ZM214.364 15.311C214.616 15.311 214.857 15.411 215.036 15.5891L216.45 14.1749C215.897 13.6217 215.146 13.311 214.364 13.311V15.311ZM206.565 15.311H214.364V13.311H206.565V15.311ZM205.565 12.3613V14.311H207.565V12.3613H205.565ZM206.429 10.2756C205.876 10.8287 205.565 11.579 205.565 12.3613H207.565C207.565 12.1094 207.665 11.8679 207.844 11.6898L206.429 10.2756ZM208.515 9.41162C207.733 9.41162 206.982 9.72239 206.429 10.2756L207.844 11.6898C208.022 11.5117 208.263 11.4116 208.515 11.4116V9.41162Z" fill="#66CCFE" mask="url(#path-16-outside-1_121_81)"/>
</svg>
