<svg width="369" height="41" viewBox="0 0 369 41" fill="none" xmlns="http://www.w3.org/2000/svg">
<circle cx="301.788" cy="20.1619" r="19.1605" fill="white"/>
<circle cx="254.127" cy="20.1619" r="19.1605" fill="#FFD600"/>
<circle cx="206.467" cy="20.1619" r="19.1605" fill="#FFD600"/>
<circle cx="349.449" cy="20.1619" r="19.1605" fill="white"/>
<path fill-rule="evenodd" clip-rule="evenodd" d="M304.005 14.4023C304.751 14.5613 305.322 14.8448 305.811 15.3023C306.44 15.896 306.784 16.6145 306.936 17.6468C307.038 18.3199 306.996 18.5845 306.758 18.804C306.534 19.0082 306.122 19.0156 305.872 18.8228C305.69 18.6866 305.633 18.5429 305.591 18.1534C305.542 17.6351 305.451 17.2723 305.296 16.9358C304.963 16.2211 304.376 15.8505 303.383 15.7295C302.917 15.6726 302.777 15.6199 302.626 15.4421C302.349 15.1131 302.455 14.5798 302.838 14.3831C302.982 14.3113 303.042 14.3038 303.361 14.3227C303.558 14.334 303.849 14.3682 304.005 14.4023ZM303.198 11.547C305.497 11.8835 307.277 12.9499 308.444 14.6819C309.099 15.6576 309.508 16.8034 309.648 18.0324C309.697 18.4824 309.697 19.3031 309.644 19.4393C309.595 19.5677 309.436 19.7417 309.3 19.8135C309.152 19.8893 308.838 19.8815 308.663 19.7908C308.372 19.6432 308.285 19.4087 308.285 18.7734C308.285 17.7941 308.031 16.7615 307.592 15.9597C307.092 15.0445 306.364 14.2882 305.478 13.7625C304.717 13.3086 303.592 12.9721 302.566 12.8889C302.194 12.8586 301.99 12.7829 301.85 12.6203C301.634 12.3745 301.611 12.0416 301.793 11.7655C301.99 11.4602 302.293 11.4108 303.198 11.547ZM294.278 9.2138C294.411 9.25931 294.616 9.365 294.733 9.44074C295.452 9.91738 297.456 12.4775 298.111 13.7556C298.486 14.4855 298.611 15.0262 298.494 15.4271C298.373 15.8582 298.172 16.0852 297.274 16.8073C296.914 17.0983 296.577 17.3971 296.524 17.4768C296.388 17.6735 296.278 18.0591 296.278 18.3315C296.282 18.963 296.691 20.109 297.229 20.9901C297.645 21.6746 298.391 22.5518 299.13 23.2251C299.997 24.0194 300.762 24.5601 301.626 24.9873C302.736 25.5394 303.414 25.6792 303.91 25.4487C304.035 25.3918 304.167 25.3164 304.209 25.2822C304.246 25.2481 304.538 24.8927 304.856 24.4993C305.47 23.7278 305.61 23.603 306.031 23.4592C306.565 23.2778 307.11 23.3269 307.659 23.6068C308.076 23.8224 308.985 24.3859 309.572 24.7942C310.345 25.3349 311.996 26.6813 312.219 26.9499C312.613 27.434 312.681 28.054 312.416 28.7387C312.136 29.4609 311.045 30.8147 310.284 31.3935C309.595 31.9153 309.106 32.1156 308.462 32.1458C307.932 32.1722 307.712 32.127 307.034 31.847C301.717 29.6576 297.471 26.3903 294.101 21.9012C292.34 19.5566 290.999 17.125 290.082 14.6026C289.548 13.1317 289.522 12.4925 289.961 11.7398C290.15 11.4221 290.957 10.6356 291.544 10.197C292.521 9.47098 292.972 9.20243 293.332 9.12668C293.578 9.07369 294.006 9.1153 294.278 9.2138ZM302.937 8.80543C304.24 8.968 305.292 9.28177 306.448 9.84552C307.584 10.4015 308.311 10.9272 309.273 11.8838C310.174 12.7877 310.674 13.4721 311.205 14.5346C311.943 16.0169 312.364 17.7794 312.435 19.7192C312.462 20.3809 312.443 20.5285 312.291 20.7177C312.004 21.0845 311.371 21.024 311.155 20.6117C311.087 20.4755 311.068 20.3584 311.045 19.8288C311.007 19.0156 310.951 18.4902 310.837 17.8624C310.39 15.4005 309.208 13.4341 307.322 12.0233C305.75 10.8434 304.126 10.2686 301.997 10.1437C301.277 10.1021 301.153 10.0758 300.99 9.95091C300.687 9.71259 300.671 9.15303 300.963 8.89196C301.141 8.72938 301.266 8.70663 301.883 8.72549C302.206 8.73717 302.679 8.77519 302.937 8.80543ZM301.789 1.00024C312.371 1.00024 320.95 9.57906 320.95 20.1614C320.95 30.7438 312.371 39.3226 301.789 39.3226C291.207 39.3226 282.628 30.7438 282.628 20.1614C282.628 9.57906 291.207 1.00024 301.789 1.00024Z" fill="#FFD600"/>
<path d="M255.877 31.972V21.4733H259.376L260.251 17.0988H255.877V15.349C255.877 13.5992 256.754 12.7243 258.502 12.7243H260.251V8.34985C259.376 8.34985 258.292 8.34985 256.752 8.34985C253.537 8.34985 251.502 10.8704 251.502 14.4741V17.0988H248.003V21.4733H251.502V31.972H255.877Z" fill="white"/>
<path fill-rule="evenodd" clip-rule="evenodd" d="M349.451 39.321C360.033 39.321 368.611 30.7427 368.611 20.1609C368.611 9.57901 360.033 1.00073 349.451 1.00073C338.869 1.00073 330.291 9.57901 330.291 20.1609C330.291 30.7427 338.869 39.321 349.451 39.321ZM355.667 28.8315L359.216 12.0954C359.531 10.6202 358.686 10.0429 357.72 10.4051L336.858 18.4423C335.435 18.9988 335.456 19.7967 336.616 20.159L341.95 21.8284L354.339 14.0273C354.922 13.6388 355.452 13.8541 355.016 14.2426L344.995 23.2983L344.606 28.8053C345.163 28.8053 345.404 28.5638 345.693 28.2751L348.302 25.7657L353.709 29.7503C354.701 30.3066 355.399 30.0127 355.667 28.8315Z" fill="#FFD600"/>
<path d="M225.626 20.1601C225.626 30.742 217.048 39.3203 206.466 39.3203C195.884 39.3203 187.306 30.742 187.306 20.1601C187.306 9.57828 195.884 1 206.466 1C217.048 1 225.626 9.57828 225.626 20.1601Z" fill="#FFD600"/>
<path d="M208.415 16.2605H198.666C197.591 16.2605 196.717 17.1349 196.717 18.2102V27.9585C196.717 29.0337 197.591 29.9082 198.666 29.9082H208.415C209.49 29.9082 210.364 29.0337 210.364 27.9585V18.2102C210.364 17.1349 209.49 16.2605 208.415 16.2605Z" fill="white"/>
<path d="M214.263 10.4116H204.515C203.998 10.4116 203.502 10.617 203.136 10.9827C202.771 11.3483 202.565 11.8442 202.565 12.3613V14.311H210.364C210.881 14.311 211.377 14.5164 211.743 14.882C212.108 15.2476 212.314 15.7435 212.314 16.2606V24.0593H214.263C214.78 24.0593 215.276 23.8539 215.642 23.4882C216.008 23.1226 216.213 22.6267 216.213 22.1096V12.3613C216.213 11.8442 216.008 11.3483 215.642 10.9827C215.276 10.617 214.78 10.4116 214.263 10.4116Z" fill="white"/>
<circle cx="115.483" cy="20.1619" r="19.1605" fill="#38C3FF"/>
<circle cx="67.8216" cy="20.1619" r="19.6605" fill="white" stroke="#38C3FF"/>
<circle cx="20.1615" cy="20.1619" r="19.1605" fill="#38C3FF"/>
<circle cx="163.144" cy="20.1619" r="19.1605" fill="white"/>
<path d="M116.82 12.0417L116.818 12.0414C116.364 11.9731 116.131 11.9643 116.002 11.9846C115.974 11.9889 115.957 11.9938 115.947 11.9973C115.938 12.0005 115.935 12.0028 115.934 12.0031L115.934 12.0032C115.934 12.0035 115.932 12.0044 115.929 12.0078C115.925 12.0117 115.918 12.0201 115.908 12.0363L115.905 12.0405L115.905 12.0405C115.846 12.13 115.854 12.2152 115.92 12.2904L115.923 12.2939L115.923 12.2939C115.933 12.3061 115.947 12.3197 115.991 12.3359C116.044 12.3559 116.136 12.3771 116.301 12.3905C117.39 12.4789 118.591 12.8338 119.428 13.3327C120.392 13.9049 121.182 14.7272 121.725 15.72C122.207 16.6008 122.479 17.7168 122.479 18.7734C122.479 19.085 122.503 19.2244 122.528 19.2906C122.533 19.3036 122.536 19.3106 122.538 19.3135C122.54 19.3162 122.541 19.3172 122.541 19.3176C122.541 19.3178 122.55 19.3275 122.584 19.3447L122.587 19.3464C122.587 19.3463 122.596 19.3503 122.617 19.3548C122.641 19.36 122.67 19.3638 122.702 19.3648C122.732 19.3658 122.757 19.364 122.775 19.3615C122.777 19.3597 122.779 19.3577 122.782 19.3554C122.797 19.3432 122.814 19.3273 122.831 19.3094C122.844 19.2949 122.855 19.2814 122.863 19.27C122.865 19.2506 122.867 19.225 122.87 19.1929C122.875 19.1038 122.879 18.9855 122.879 18.8527C122.879 18.5853 122.867 18.2882 122.846 18.088C122.714 16.9336 122.331 15.8657 121.723 14.9613L116.82 12.0417ZM116.82 12.0417C118.996 12.3603 120.644 13.3592 121.723 14.9607L116.82 12.0417ZM107.803 9.68408L107.803 9.68402C107.717 9.65284 107.585 9.62456 107.443 9.61125C107.297 9.59755 107.185 9.604 107.131 9.61548L107.129 9.61596C107.026 9.63772 106.877 9.69342 106.621 9.84708C106.363 10.001 106.023 10.2371 105.537 10.5981C105.266 10.8007 104.935 11.0913 104.647 11.3718C104.346 11.6648 104.144 11.898 104.086 11.9943C103.908 12.2996 103.837 12.5533 103.85 12.8808C103.866 13.2377 103.983 13.7048 104.247 14.4318C105.144 16.9034 106.46 19.2919 108.195 21.6009L108.195 21.601C111.51 26.0165 115.683 29.2287 120.919 31.3847L120.92 31.3849C121.256 31.524 121.444 31.5892 121.6 31.6219C121.746 31.6523 121.885 31.6587 122.132 31.6465L122.133 31.6464C122.648 31.6222 123.042 31.4755 123.676 30.9953C124.011 30.7404 124.445 30.2917 124.835 29.8066C125.231 29.315 125.533 28.8451 125.644 28.5582C125.857 28.0078 125.785 27.5864 125.529 27.2689C125.528 27.2677 125.527 27.2665 125.526 27.2653L107.803 9.68408ZM107.803 9.68408L107.811 9.68674M107.803 9.68408L107.811 9.68674M107.811 9.68674C107.895 9.71565 108.06 9.79942 108.154 9.85917C108.278 9.94211 108.501 10.1492 108.798 10.4738C109.086 10.789 109.416 11.1834 109.747 11.6058C110.414 12.4581 111.055 13.3878 111.361 13.9837L111.361 13.984M107.811 9.68674L111.361 13.984M111.361 13.984C111.727 14.697 111.768 15.0838 111.708 15.2866L111.708 15.2866M111.361 13.984L111.708 15.2866M111.708 15.2866L111.707 15.2917M111.708 15.2866L111.707 15.2917M111.707 15.2917C111.665 15.4398 111.619 15.5362 111.495 15.677C111.35 15.8414 111.108 16.0539 110.655 16.4177L110.654 16.4185M111.707 15.2917L110.654 16.4185M110.654 16.4185C110.469 16.5681 110.289 16.7207 110.146 16.8479C110.075 16.9113 110.01 16.9709 109.958 17.0223C109.919 17.0601 109.853 17.1261 109.806 17.1944C109.696 17.3542 109.616 17.5557 109.564 17.7378C109.51 17.9244 109.473 18.1366 109.473 18.3315L109.473 18.3346M110.654 16.4185L109.473 18.3346M109.473 18.3346C109.475 18.7339 109.6 19.2407 109.777 19.7355C109.957 20.2405 110.208 20.7784 110.496 21.2503C110.943 21.9839 111.722 22.8968 112.487 23.5945C113.381 24.4132 114.184 24.9832 115.098 25.4353C115.668 25.7187 116.16 25.9137 116.593 26.0015C117.033 26.0908 117.441 26.0753 117.813 25.9029C117.889 25.8684 117.965 25.8292 118.029 25.7931C118.083 25.7628 118.162 25.7168 118.22 25.6689L118.23 25.6612M109.473 18.3346L118.23 25.6612M118.23 25.6612L118.239 25.653M118.23 25.6612L118.239 25.653M118.239 25.653C118.277 25.6184 118.325 25.5612 118.353 25.5291L118.356 25.5247C118.396 25.4777 118.448 25.4157 118.507 25.3438C118.626 25.1997 118.78 25.011 118.94 24.8136L118.942 24.8105M118.239 25.653L118.942 24.8105M118.942 24.8105C119.255 24.4176 119.416 24.2296 119.542 24.118M118.942 24.8105L119.542 24.118M119.542 24.118C119.64 24.0306 119.715 23.9911 119.886 23.9326M119.542 24.118L119.886 23.9326M119.886 23.9326C120.28 23.799 120.685 23.8275 121.125 24.0517M119.886 23.9326L121.125 24.0517M121.125 24.0517C121.516 24.2542 122.404 24.8034 122.98 25.2041L121.125 24.0517ZM117.591 14.8906L117.595 14.8913C118.265 15.0341 118.75 15.2805 119.163 15.6664C119.694 16.1678 119.997 16.7749 120.136 17.7194L120.136 17.722C120.186 18.0525 120.19 18.2221 120.175 18.319C120.166 18.3798 120.153 18.3995 120.115 18.4351C120.111 18.4385 120.077 18.461 120.009 18.4624C119.941 18.4638 119.892 18.4426 119.871 18.4269L119.871 18.4269L119.866 18.4228C119.855 18.4146 119.848 18.4088 119.844 18.4051C119.84 18.4016 119.839 18.3998 119.839 18.3997C119.839 18.3997 119.839 18.3999 119.839 18.3997C119.839 18.3994 119.837 18.397 119.835 18.3916C119.823 18.3612 119.803 18.2902 119.783 18.1031C119.73 17.5472 119.629 17.1267 119.444 16.7262L119.443 16.7245C119.24 16.2893 118.95 15.9405 118.548 15.6871C118.153 15.4382 117.681 15.2993 117.138 15.2332C116.905 15.2047 116.808 15.1824 116.758 15.1636C116.741 15.1569 116.736 15.1529 116.734 15.1519C116.732 15.1501 116.722 15.1428 116.702 15.1193C116.673 15.0842 116.656 15.028 116.669 14.961C116.683 14.8945 116.719 14.8499 116.759 14.8288C116.775 14.8209 116.784 14.8171 116.788 14.8153C116.795 14.8146 116.813 14.8134 116.851 14.814C116.893 14.8146 116.947 14.8171 117.025 14.8218L117.026 14.8218C117.209 14.8324 117.472 14.8643 117.591 14.8906ZM122.79 19.3586C122.79 19.3585 122.789 19.3587 122.789 19.3589L122.79 19.3586ZM122.858 19.3053C122.858 19.305 122.858 19.3039 122.859 19.3019C122.858 19.3046 122.858 19.3057 122.858 19.3053ZM125.63 19.7377L125.63 19.7393C125.644 20.0792 125.643 20.2349 125.63 20.3252C125.627 20.3437 125.624 20.3551 125.623 20.3615C125.621 20.3675 125.62 20.3702 125.62 20.371C125.619 20.3712 125.616 20.3793 125.596 20.4052L125.596 20.4052L125.592 20.4091C125.572 20.4353 125.521 20.4669 125.438 20.459C125.356 20.4513 125.31 20.4119 125.294 20.3816C125.287 20.3681 125.281 20.3526 125.273 20.297C125.261 20.2128 125.251 20.0752 125.239 19.8073L125.239 19.8054C125.2 18.9752 125.142 18.4272 125.023 17.7732L125.023 17.7731C124.555 15.1959 123.311 13.1148 121.316 11.6232C119.66 10.3796 117.939 9.77468 115.721 9.64458L115.72 9.64455C115.353 9.62328 115.177 9.60748 115.074 9.58764C115.03 9.57911 115.016 9.57265 115.015 9.57205C115.014 9.57162 115.012 9.57103 115.01 9.5693C115.007 9.56749 115.001 9.56399 114.992 9.55715C114.984 9.54957 114.95 9.50708 114.948 9.41702C114.945 9.32389 114.98 9.27463 114.991 9.26448L114.991 9.26449L114.994 9.26128C115.011 9.24633 115.02 9.23946 115.024 9.2368C115.027 9.2359 115.032 9.23442 115.042 9.23269C115.112 9.2201 115.243 9.21551 115.561 9.22522C115.869 9.23643 116.326 9.27317 116.571 9.30181C117.819 9.45767 118.818 9.75574 119.923 10.2949C121.005 10.8247 121.688 11.3171 122.614 12.2373C123.48 13.1061 123.947 13.7472 124.452 14.7576C125.154 16.1667 125.561 17.8575 125.63 19.7377ZM115.021 9.23771C115.021 9.23771 115.021 9.23755 115.022 9.23727L115.021 9.23771ZM135.145 20.1614C135.145 9.30292 126.342 0.500244 115.483 0.500244C104.625 0.500244 95.8223 9.30292 95.8223 20.1614C95.8223 31.0199 104.625 39.8226 115.483 39.8226C126.342 39.8226 135.145 31.0199 135.145 20.1614Z" fill="white" stroke="#38C3FF"/>
<path d="M69.5713 31.972V21.4733H73.0709L73.9458 17.0988H69.5713V15.349C69.5713 13.5992 70.448 12.7243 72.196 12.7243H73.9458V8.34985C73.0709 8.34985 71.986 8.34985 70.4462 8.34985C67.231 8.34985 65.1968 10.8704 65.1968 14.4741V17.0988H61.6973V21.4733H65.1968V31.972H69.5713Z" fill="#38C3FF"/>
<mask id="path-17-outside-1_67_29740" maskUnits="userSpaceOnUse" x="142.985" y="0.000732422" width="41" height="41" fill="black">
<rect fill="white" x="142.985" y="0.000732422" width="41" height="41"/>
<path d="M182.306 20.1609C182.306 30.7427 173.727 39.321 163.145 39.321C152.564 39.321 143.985 30.7427 143.985 20.1609C143.985 9.57901 152.564 1.00073 163.145 1.00073C173.727 1.00073 182.306 9.57901 182.306 20.1609Z"/>
</mask>
<path d="M182.306 20.1609C182.306 30.7427 173.727 39.321 163.145 39.321C152.564 39.321 143.985 30.7427 143.985 20.1609C143.985 9.57901 152.564 1.00073 163.145 1.00073C173.727 1.00073 182.306 9.57901 182.306 20.1609Z" fill="white"/>
<path d="M181.306 20.1609C181.306 30.1904 173.175 38.321 163.145 38.321V40.321C174.28 40.321 183.306 31.295 183.306 20.1609H181.306ZM163.145 38.321C153.116 38.321 144.985 30.1904 144.985 20.1609H142.985C142.985 31.295 152.011 40.321 163.145 40.321V38.321ZM144.985 20.1609C144.985 10.1313 153.116 2.00073 163.145 2.00073V0.000732422C152.011 0.000732422 142.985 9.02673 142.985 20.1609H144.985ZM163.145 2.00073C173.175 2.00073 181.306 10.1313 181.306 20.1609H183.306C183.306 9.02673 174.28 0.000732422 163.145 0.000732422V2.00073Z" fill="#38C3FF" mask="url(#path-17-outside-1_67_29740)"/>
<path d="M172.91 12.0954L169.362 28.8315C169.094 30.0127 168.396 30.3066 167.403 29.7503L161.996 25.7657L159.387 28.2751C159.099 28.5638 158.857 28.8053 158.301 28.8053L158.689 23.2983L168.711 14.2426C169.146 13.8541 168.616 13.6388 168.033 14.0273L155.644 21.8284L150.311 20.159C149.15 19.7967 149.129 18.9988 150.552 18.4423L171.414 10.4051C172.38 10.0429 173.225 10.6202 172.91 12.0954Z" fill="#38C3FF"/>
<mask id="path-20-outside-2_67_29740" maskUnits="userSpaceOnUse" x="0" y="0" width="41" height="41" fill="black">
<rect fill="white" width="41" height="41"/>
<path fill-rule="evenodd" clip-rule="evenodd" d="M39.3203 20.1601C39.3203 30.742 30.742 39.3203 20.1601 39.3203C9.57828 39.3203 1 30.742 1 20.1601C1 9.57828 9.57828 1 20.1601 1C30.742 1 39.3203 9.57828 39.3203 20.1601ZM22.1091 16.2605H12.3608C11.2856 16.2605 10.4111 17.1349 10.4111 18.2102V27.9585C10.4111 29.0338 11.2856 29.9082 12.3608 29.9082H22.1091C23.1844 29.9082 24.0588 29.0338 24.0588 27.9585V18.2102C24.0588 17.1349 23.1844 16.2605 22.1091 16.2605ZM18.2094 10.4116H27.9578C28.4748 10.4116 28.9707 10.617 29.3364 10.9827C29.702 11.3483 29.9074 11.8442 29.9074 12.3613V22.1096C29.9074 22.6267 29.702 23.1226 29.3364 23.4882C28.9707 23.8539 28.4748 24.0593 27.9578 24.0593H26.0081V16.2606C26.0081 15.7435 25.8027 15.2476 25.437 14.882C25.0714 14.5164 24.5755 14.311 24.0584 14.311H16.2598V12.3613C16.2598 11.8442 16.4652 11.3483 16.8308 10.9827C17.1964 10.617 17.6923 10.4116 18.2094 10.4116Z"/>
</mask>
<path fill-rule="evenodd" clip-rule="evenodd" d="M39.3203 20.1601C39.3203 30.742 30.742 39.3203 20.1601 39.3203C9.57828 39.3203 1 30.742 1 20.1601C1 9.57828 9.57828 1 20.1601 1C30.742 1 39.3203 9.57828 39.3203 20.1601ZM22.1091 16.2605H12.3608C11.2856 16.2605 10.4111 17.1349 10.4111 18.2102V27.9585C10.4111 29.0338 11.2856 29.9082 12.3608 29.9082H22.1091C23.1844 29.9082 24.0588 29.0338 24.0588 27.9585V18.2102C24.0588 17.1349 23.1844 16.2605 22.1091 16.2605ZM18.2094 10.4116H27.9578C28.4748 10.4116 28.9707 10.617 29.3364 10.9827C29.702 11.3483 29.9074 11.8442 29.9074 12.3613V22.1096C29.9074 22.6267 29.702 23.1226 29.3364 23.4882C28.9707 23.8539 28.4748 24.0593 27.9578 24.0593H26.0081V16.2606C26.0081 15.7435 25.8027 15.2476 25.437 14.882C25.0714 14.5164 24.5755 14.311 24.0584 14.311H16.2598V12.3613C16.2598 11.8442 16.4652 11.3483 16.8308 10.9827C17.1964 10.617 17.6923 10.4116 18.2094 10.4116Z" fill="white"/>
<path d="M29.3364 10.9827L28.6293 11.6898L28.6293 11.6898L29.3364 10.9827ZM29.3364 23.4882L28.6293 22.7811L28.6293 22.7811L29.3364 23.4882ZM26.0081 24.0593H25.0081V25.0593H26.0081V24.0593ZM25.437 14.882L24.7299 15.5891L24.7299 15.5891L25.437 14.882ZM16.2598 14.311H15.2598V15.311H16.2598V14.311ZM20.1601 40.3203C31.2943 40.3203 40.3203 31.2943 40.3203 20.1601H38.3203C38.3203 30.1897 30.1897 38.3203 20.1601 38.3203V40.3203ZM0 20.1601C0 31.2943 9.026 40.3203 20.1601 40.3203V38.3203C10.1306 38.3203 2 30.1897 2 20.1601H0ZM20.1601 0C9.026 0 0 9.026 0 20.1601H2C2 10.1306 10.1306 2 20.1601 2V0ZM40.3203 20.1601C40.3203 9.026 31.2943 0 20.1601 0V2C30.1897 2 38.3203 10.1306 38.3203 20.1601H40.3203ZM12.3608 17.2605H22.1091V15.2605H12.3608V17.2605ZM11.4111 18.2102C11.4111 17.6872 11.8378 17.2605 12.3608 17.2605V15.2605C10.7333 15.2605 9.41113 16.5827 9.41113 18.2102H11.4111ZM11.4111 27.9585V18.2102H9.41113V27.9585H11.4111ZM12.3608 28.9082C11.8378 28.9082 11.4111 28.4815 11.4111 27.9585H9.41113C9.41113 29.586 10.7333 30.9082 12.3608 30.9082V28.9082ZM22.1091 28.9082H12.3608V30.9082H22.1091V28.9082ZM23.0588 27.9585C23.0588 28.4815 22.6321 28.9082 22.1091 28.9082V30.9082C23.7366 30.9082 25.0588 29.586 25.0588 27.9585H23.0588ZM23.0588 18.2102V27.9585H25.0588V18.2102H23.0588ZM22.1091 17.2605C22.6321 17.2605 23.0588 17.6872 23.0588 18.2102H25.0588C25.0588 16.5827 23.7366 15.2605 22.1091 15.2605V17.2605ZM27.9578 9.41162H18.2094V11.4116H27.9578V9.41162ZM30.0435 10.2756C29.4903 9.72239 28.7401 9.41162 27.9578 9.41162V11.4116C28.2096 11.4116 28.4512 11.5117 28.6293 11.6898L30.0435 10.2756ZM30.9074 12.3613C30.9074 11.579 30.5967 10.8287 30.0435 10.2756L28.6293 11.6898C28.8074 11.8679 28.9074 12.1094 28.9074 12.3613H30.9074ZM30.9074 22.1096V12.3613H28.9074V22.1096H30.9074ZM30.0435 24.1953C30.5967 23.6422 30.9074 22.8919 30.9074 22.1096H28.9074C28.9074 22.3615 28.8074 22.603 28.6293 22.7811L30.0435 24.1953ZM27.9578 25.0593C28.7401 25.0593 29.4903 24.7485 30.0435 24.1953L28.6293 22.7811C28.4512 22.9592 28.2096 23.0593 27.9578 23.0593V25.0593ZM26.0081 25.0593H27.9578V23.0593H26.0081V25.0593ZM25.0081 16.2606V24.0593H27.0081V16.2606H25.0081ZM24.7299 15.5891C24.908 15.7672 25.0081 16.0087 25.0081 16.2606H27.0081C27.0081 15.4783 26.6973 14.7281 26.1442 14.1749L24.7299 15.5891ZM24.0584 15.311C24.3103 15.311 24.5518 15.411 24.7299 15.5891L26.1442 14.1749C25.591 13.6217 24.8407 13.311 24.0584 13.311V15.311ZM16.2598 15.311H24.0584V13.311H16.2598V15.311ZM15.2598 12.3613V14.311H17.2598V12.3613H15.2598ZM16.1237 10.2756C15.5705 10.8287 15.2598 11.579 15.2598 12.3613H17.2598C17.2598 12.1094 17.3598 11.8679 17.5379 11.6898L16.1237 10.2756ZM18.2094 9.41162C17.4271 9.41162 16.6769 9.72239 16.1237 10.2756L17.5379 11.6898C17.716 11.5117 17.9576 11.4116 18.2094 11.4116V9.41162Z" fill="#38C3FF" mask="url(#path-20-outside-2_67_29740)"/>
</svg>
